<mxfile host="app.diagrams.net" agent="Mozilla/5.0 (Windows NT 10.0; Win64; x64) AppleWebKit/537.36 (KHTML, like Gecko) Chrome/135.0.0.0 Safari/537.36" version="26.2.15">
  <diagram name="Trang-1" id="HAZxEGOwFa6o82bB2BYx">
    <mxGraphModel dx="1281" dy="561" grid="1" gridSize="10" guides="1" tooltips="1" connect="1" arrows="1" fold="1" page="1" pageScale="1" pageWidth="827" pageHeight="1169" math="0" shadow="0">
      <root>
        <mxCell id="0" />
        <mxCell id="1" parent="0" />
        <mxCell id="KR7VNbMolSbUOIRlHp8h-14" style="edgeStyle=orthogonalEdgeStyle;rounded=0;orthogonalLoop=1;jettySize=auto;html=1;" edge="1" parent="1" source="KR7VNbMolSbUOIRlHp8h-3">
          <mxGeometry relative="1" as="geometry">
            <mxPoint x="100" y="559.6000061035156" as="targetPoint" />
            <Array as="points">
              <mxPoint x="100" y="240" />
              <mxPoint x="101" y="240" />
            </Array>
          </mxGeometry>
        </mxCell>
        <mxCell id="KR7VNbMolSbUOIRlHp8h-3" value="Admin" style="rounded=0;whiteSpace=wrap;html=1;" vertex="1" parent="1">
          <mxGeometry x="40" y="20" width="120" height="60" as="geometry" />
        </mxCell>
        <mxCell id="KR7VNbMolSbUOIRlHp8h-15" style="edgeStyle=orthogonalEdgeStyle;rounded=0;orthogonalLoop=1;jettySize=auto;html=1;" edge="1" parent="1" source="KR7VNbMolSbUOIRlHp8h-4">
          <mxGeometry relative="1" as="geometry">
            <mxPoint x="300" y="520" as="targetPoint" />
          </mxGeometry>
        </mxCell>
        <mxCell id="KR7VNbMolSbUOIRlHp8h-4" value="System" style="rounded=0;whiteSpace=wrap;html=1;" vertex="1" parent="1">
          <mxGeometry x="240" y="20" width="120" height="60" as="geometry" />
        </mxCell>
        <mxCell id="KR7VNbMolSbUOIRlHp8h-16" style="edgeStyle=orthogonalEdgeStyle;rounded=0;orthogonalLoop=1;jettySize=auto;html=1;" edge="1" parent="1" source="KR7VNbMolSbUOIRlHp8h-5">
          <mxGeometry relative="1" as="geometry">
            <mxPoint x="550" y="500" as="targetPoint" />
          </mxGeometry>
        </mxCell>
        <mxCell id="KR7VNbMolSbUOIRlHp8h-5" value="Employee Management Module" style="rounded=0;whiteSpace=wrap;html=1;" vertex="1" parent="1">
          <mxGeometry x="490" y="20" width="120" height="60" as="geometry" />
        </mxCell>
        <mxCell id="KR7VNbMolSbUOIRlHp8h-17" style="edgeStyle=orthogonalEdgeStyle;rounded=0;orthogonalLoop=1;jettySize=auto;html=1;" edge="1" parent="1" source="KR7VNbMolSbUOIRlHp8h-6">
          <mxGeometry relative="1" as="geometry">
            <mxPoint x="760" y="490" as="targetPoint" />
            <Array as="points">
              <mxPoint x="760" y="320" />
              <mxPoint x="760" y="320" />
            </Array>
          </mxGeometry>
        </mxCell>
        <mxCell id="KR7VNbMolSbUOIRlHp8h-24" value="4. Lưu thay đổi" style="edgeLabel;html=1;align=center;verticalAlign=middle;resizable=0;points=[];rotation=90;" vertex="1" connectable="0" parent="KR7VNbMolSbUOIRlHp8h-17">
          <mxGeometry x="-0.1663" y="3" relative="1" as="geometry">
            <mxPoint x="17" y="17" as="offset" />
          </mxGeometry>
        </mxCell>
        <mxCell id="KR7VNbMolSbUOIRlHp8h-6" value="Database" style="rounded=0;whiteSpace=wrap;html=1;" vertex="1" parent="1">
          <mxGeometry x="700" y="20" width="120" height="60" as="geometry" />
        </mxCell>
        <mxCell id="KR7VNbMolSbUOIRlHp8h-18" value="" style="endArrow=classic;html=1;rounded=0;" edge="1" parent="1">
          <mxGeometry width="50" height="50" relative="1" as="geometry">
            <mxPoint x="100" y="160" as="sourcePoint" />
            <mxPoint x="300" y="160" as="targetPoint" />
            <Array as="points">
              <mxPoint x="200" y="160" />
            </Array>
          </mxGeometry>
        </mxCell>
        <mxCell id="KR7VNbMolSbUOIRlHp8h-19" value="1. Thêm xóa sửa nhân viên" style="edgeLabel;html=1;align=center;verticalAlign=middle;resizable=0;points=[];" vertex="1" connectable="0" parent="KR7VNbMolSbUOIRlHp8h-18">
          <mxGeometry x="-0.362" y="2" relative="1" as="geometry">
            <mxPoint x="33" y="-18" as="offset" />
          </mxGeometry>
        </mxCell>
        <mxCell id="KR7VNbMolSbUOIRlHp8h-20" value="" style="endArrow=classic;html=1;rounded=0;" edge="1" parent="1">
          <mxGeometry width="50" height="50" relative="1" as="geometry">
            <mxPoint x="300" y="200" as="sourcePoint" />
            <mxPoint x="550" y="200" as="targetPoint" />
          </mxGeometry>
        </mxCell>
        <mxCell id="KR7VNbMolSbUOIRlHp8h-21" value="2.&amp;nbsp;Gửi yêu cầu xử lý&amp;nbsp;" style="edgeLabel;html=1;align=center;verticalAlign=middle;resizable=0;points=[];" vertex="1" connectable="0" parent="KR7VNbMolSbUOIRlHp8h-20">
          <mxGeometry x="-0.0416" y="4" relative="1" as="geometry">
            <mxPoint y="-16" as="offset" />
          </mxGeometry>
        </mxCell>
        <mxCell id="KR7VNbMolSbUOIRlHp8h-22" value="" style="endArrow=classic;html=1;rounded=0;" edge="1" parent="1">
          <mxGeometry width="50" height="50" relative="1" as="geometry">
            <mxPoint x="550" y="280" as="sourcePoint" />
            <mxPoint x="760" y="280" as="targetPoint" />
          </mxGeometry>
        </mxCell>
        <mxCell id="KR7VNbMolSbUOIRlHp8h-23" value="3. Xác thực dữ liệu&amp;nbsp;" style="text;html=1;align=center;verticalAlign=middle;resizable=0;points=[];autosize=1;strokeColor=none;fillColor=none;" vertex="1" parent="1">
          <mxGeometry x="590" y="250" width="130" height="30" as="geometry" />
        </mxCell>
        <mxCell id="KR7VNbMolSbUOIRlHp8h-25" value="" style="endArrow=classic;html=1;rounded=0;" edge="1" parent="1">
          <mxGeometry width="50" height="50" relative="1" as="geometry">
            <mxPoint x="760" y="320" as="sourcePoint" />
            <mxPoint x="550" y="320" as="targetPoint" />
          </mxGeometry>
        </mxCell>
        <mxCell id="KR7VNbMolSbUOIRlHp8h-26" value="" style="endArrow=classic;html=1;rounded=0;" edge="1" parent="1">
          <mxGeometry width="50" height="50" relative="1" as="geometry">
            <mxPoint x="540" y="360" as="sourcePoint" />
            <mxPoint x="300" y="360" as="targetPoint" />
          </mxGeometry>
        </mxCell>
        <mxCell id="KR7VNbMolSbUOIRlHp8h-27" value="4.&amp;nbsp;Nhận kết quả&amp;nbsp;" style="edgeLabel;html=1;align=center;verticalAlign=middle;resizable=0;points=[];" vertex="1" connectable="0" parent="KR7VNbMolSbUOIRlHp8h-26">
          <mxGeometry x="0.0267" y="3" relative="1" as="geometry">
            <mxPoint x="-3" y="-23" as="offset" />
          </mxGeometry>
        </mxCell>
        <mxCell id="KR7VNbMolSbUOIRlHp8h-28" value="" style="endArrow=classic;html=1;rounded=0;" edge="1" parent="1">
          <mxGeometry width="50" height="50" relative="1" as="geometry">
            <mxPoint x="300" y="440" as="sourcePoint" />
            <mxPoint x="100" y="440" as="targetPoint" />
          </mxGeometry>
        </mxCell>
        <mxCell id="KR7VNbMolSbUOIRlHp8h-29" value="5. Hiển thị kết quả: Thành công/thất bại" style="edgeLabel;html=1;align=center;verticalAlign=middle;resizable=0;points=[];" vertex="1" connectable="0" parent="KR7VNbMolSbUOIRlHp8h-28">
          <mxGeometry x="0.092" y="-1" relative="1" as="geometry">
            <mxPoint x="9" y="-9" as="offset" />
          </mxGeometry>
        </mxCell>
      </root>
    </mxGraphModel>
  </diagram>
</mxfile>
